<svg width="512" height="512" viewBox="0 0 512 512" fill="none" xmlns="http://www.w3.org/2000/svg">
<path d="M466.631 170.434C466.631 149.336 466.631 138.787 463.565 129.341C460.852 120.983 456.415 113.288 450.539 106.754C443.899 99.3695 434.769 94.086 416.507 83.519L307.721 20.5695C289.401 9.96847 280.241 4.66794 270.5 2.59349C261.881 0.758046 252.973 0.758046 244.354 2.59349C234.613 4.66794 225.453 9.96846 207.133 20.5695L98.3468 83.5189C80.0854 94.086 70.9546 99.3695 64.3145 106.754C58.4393 113.288 54.0016 120.983 51.2887 129.341C48.2227 138.787 48.2227 149.336 48.2227 170.435V296.836C48.2227 317.896 48.2227 328.426 51.2792 337.858C53.9837 346.204 58.4078 353.89 64.2662 360.421C70.8872 367.801 79.9928 373.09 98.2039 383.668L168.437 424.464C173.23 427.247 175.626 428.639 177.368 430.581C178.91 432.3 180.074 434.322 180.786 436.519C181.59 439.001 181.59 441.772 181.59 447.314V483.093C181.59 494.968 181.59 500.906 184.084 504.341C186.26 507.338 189.604 509.272 193.287 509.663C197.508 510.11 202.654 507.149 212.946 501.225L282.354 461.278L416.51 383.642C434.771 373.074 443.901 367.791 450.54 360.406C456.415 353.872 460.853 346.177 463.565 337.82C466.631 328.374 466.631 317.826 466.631 296.728V170.434Z" fill="#2845C1"/>
<g filter="url(#filter0_d_7951_22742)">
<path d="M389.926 178.624C389.926 171.298 389.926 167.635 388.861 164.355C387.919 161.453 386.378 158.781 384.338 156.513C382.033 153.949 378.862 152.114 372.522 148.445L274.893 91.9518C268.532 88.2709 265.351 86.4304 261.969 85.7101C258.976 85.0728 255.883 85.0728 252.891 85.7101C249.508 86.4304 246.328 88.2709 239.967 91.9518L142.338 148.445C135.997 152.114 132.827 153.949 130.521 156.513C128.481 158.781 126.94 161.453 125.998 164.355C124.934 167.635 124.934 171.298 124.934 178.624V291.594C124.934 298.973 124.934 302.662 126.011 305.96C126.965 308.879 128.525 311.563 130.588 313.836C132.92 316.406 136.125 318.233 142.535 321.887L240.164 377.531C246.458 381.119 249.605 382.912 252.946 383.615C255.903 384.236 258.956 384.236 261.913 383.615C265.254 382.912 268.401 381.119 274.695 377.531L372.324 321.887C378.734 318.233 381.939 316.406 384.271 313.836C386.335 311.563 387.894 308.879 388.848 305.96C389.926 302.662 389.926 298.973 389.926 291.594V178.624Z" fill="white"/>
</g>
<path d="M245.105 186.312H267.939V319.197H245.105V186.312Z" fill="#C83F49"/>
<path d="M203.524 230.4H180.691V174.872H337.831V197.744H203.524V230.4Z" fill="#C83F49"/>
<defs>
<filter id="filter0_d_7951_22742" x="107.867" y="82.388" width="299.126" height="332.981" filterUnits="userSpaceOnUse" color-interpolation-filters="sRGB">
<feFlood flood-opacity="0" result="BackgroundImageFix"/>
<feColorMatrix in="SourceAlpha" type="matrix" values="0 0 0 0 0 0 0 0 0 0 0 0 0 0 0 0 0 0 127 0" result="hardAlpha"/>
<feOffset dy="14.2222"/>
<feGaussianBlur stdDeviation="8.53333"/>
<feComposite in2="hardAlpha" operator="out"/>
<feColorMatrix type="matrix" values="0 0 0 0 0.0470588 0 0 0 0 0.0470588 0 0 0 0 0.0509804 0 0 0 0.08 0"/>
<feBlend mode="normal" in2="BackgroundImageFix" result="effect1_dropShadow_7951_22742"/>
<feBlend mode="normal" in="SourceGraphic" in2="effect1_dropShadow_7951_22742" result="shape"/>
</filter>
</defs>
</svg>
